# xmcd CD database file
#
# Track frame offsets:
#	150
#	18456
#	37141
#	55660
#	76310
#	99308
#	117275
#	159847
#	171929
#	190120
#
# Disc length: 2722 seconds
#
# Revision: 0
# Processed by: cddbd v1.5.2PL0 Copyright (c) Steve Scherf et al.
# Submitted via: CDex 1.51
#
DISCID=730aa00a
DTITLE=Wizard of Oz - No.10
DYEAR=2004
DGENRE=Jazz
TTITLE0=Can't find my way home
TTITLE1=This hand that changed its mind
TTITLE2=The Moon's a harsh mistress 
TTITLE3=A case of you
TTITLE4=While my guitar gently weeps
TTITLE5=As old as the hills
TTITLE6=Wonderful tonight
TTITLE7=That'll work
TTITLE8=China Grove
TTITLE9=Moon shadow
EXTD=YEAR: 2004
EXTT0=
EXTT1=
EXTT2=
EXTT3=
EXTT4=
EXTT5=
EXTT6=
EXTT7=
EXTT8=
EXTT9=
PLAYORDER=
